<svg width="19" height="19" viewBox="0 0 19 19" fill="none" xmlns="http://www.w3.org/2000/svg">
<path fill-rule="evenodd" clip-rule="evenodd" d="M12.8453 14.3663C11.5006 15.3913 9.82137 16 8 16C3.58172 16 0 12.4183 0 8C0 3.58172 3.58172 0 8 0C12.4183 0 16 3.58172 16 8C16 10.0713 15.2128 11.9587 13.9214 13.3794C13.9479 13.3975 13.9736 13.4175 13.9983 13.4394L18.4983 17.4394C18.8079 17.7146 18.8357 18.1887 18.5606 18.4983C18.2854 18.8079 17.8113 18.8357 17.5017 18.5606L13.0017 14.5606C12.9373 14.5033 12.8851 14.4375 12.8453 14.3663ZM14.5 8C14.5 11.5899 11.5899 14.5 8 14.5C4.41015 14.5 1.5 11.5899 1.5 8C1.5 4.41015 4.41015 1.5 8 1.5C11.5899 1.5 14.5 4.41015 14.5 8Z" fill="white"/>
</svg>
